<mxfile host="app.diagrams.net" agent="Mozilla/5.0 (X11; Linux x86_64) AppleWebKit/537.36 (KHTML, like Gecko) Chrome/129.0.0.0 Safari/537.36" version="24.7.17">
  <diagram name="Page-1" id="2YBvvXClWsGukQMizWep">
    <mxGraphModel dx="684" dy="376" grid="1" gridSize="10" guides="1" tooltips="1" connect="1" arrows="1" fold="1" page="1" pageScale="1" pageWidth="850" pageHeight="1100" math="0" shadow="0">
      <root>
        <mxCell id="0" />
        <mxCell id="1" parent="0" />
        <mxCell id="ghNGC7fNvTlc1g47wujl-1" value="Cliente" style="shape=umlLifeline;perimeter=lifelinePerimeter;whiteSpace=wrap;html=1;container=0;dropTarget=0;collapsible=0;recursiveResize=0;outlineConnect=0;portConstraint=eastwest;newEdgeStyle={&quot;edgeStyle&quot;:&quot;elbowEdgeStyle&quot;,&quot;elbow&quot;:&quot;vertical&quot;,&quot;curved&quot;:0,&quot;rounded&quot;:0};" vertex="1" parent="1">
          <mxGeometry x="60" y="60" width="100" height="300" as="geometry" />
        </mxCell>
        <mxCell id="ghNGC7fNvTlc1g47wujl-2" value="" style="html=1;points=[];perimeter=orthogonalPerimeter;outlineConnect=0;targetShapes=umlLifeline;portConstraint=eastwest;newEdgeStyle={&quot;edgeStyle&quot;:&quot;elbowEdgeStyle&quot;,&quot;elbow&quot;:&quot;vertical&quot;,&quot;curved&quot;:0,&quot;rounded&quot;:0};" vertex="1" parent="ghNGC7fNvTlc1g47wujl-1">
          <mxGeometry x="45" y="70" width="10" height="210" as="geometry" />
        </mxCell>
        <mxCell id="ghNGC7fNvTlc1g47wujl-3" value="Servidor" style="shape=umlLifeline;perimeter=lifelinePerimeter;whiteSpace=wrap;html=1;container=0;dropTarget=0;collapsible=0;recursiveResize=0;outlineConnect=0;portConstraint=eastwest;newEdgeStyle={&quot;edgeStyle&quot;:&quot;elbowEdgeStyle&quot;,&quot;elbow&quot;:&quot;vertical&quot;,&quot;curved&quot;:0,&quot;rounded&quot;:0};" vertex="1" parent="1">
          <mxGeometry x="240" y="60" width="100" height="300" as="geometry" />
        </mxCell>
        <mxCell id="ghNGC7fNvTlc1g47wujl-4" value="" style="html=1;points=[];perimeter=orthogonalPerimeter;outlineConnect=0;targetShapes=umlLifeline;portConstraint=eastwest;newEdgeStyle={&quot;edgeStyle&quot;:&quot;elbowEdgeStyle&quot;,&quot;elbow&quot;:&quot;vertical&quot;,&quot;curved&quot;:0,&quot;rounded&quot;:0};" vertex="1" parent="ghNGC7fNvTlc1g47wujl-3">
          <mxGeometry x="45" y="80" width="10" height="170" as="geometry" />
        </mxCell>
        <mxCell id="ghNGC7fNvTlc1g47wujl-5" value="" style="endArrow=classic;html=1;rounded=0;" edge="1" parent="1">
          <mxGeometry width="50" height="50" relative="1" as="geometry">
            <mxPoint x="110" y="140" as="sourcePoint" />
            <mxPoint x="284" y="169" as="targetPoint" />
          </mxGeometry>
        </mxCell>
        <mxCell id="ghNGC7fNvTlc1g47wujl-6" value="&lt;font style=&quot;font-size: 8px;&quot;&gt;Request()&lt;/font&gt;" style="text;html=1;align=center;verticalAlign=middle;whiteSpace=wrap;rounded=0;rotation=10;" vertex="1" parent="1">
          <mxGeometry x="170" y="130" width="60" height="30" as="geometry" />
        </mxCell>
        <mxCell id="ghNGC7fNvTlc1g47wujl-7" value="" style="endArrow=classic;html=1;rounded=0;" edge="1" parent="1">
          <mxGeometry width="50" height="50" relative="1" as="geometry">
            <mxPoint x="110" y="170" as="sourcePoint" />
            <mxPoint x="284" y="199" as="targetPoint" />
          </mxGeometry>
        </mxCell>
        <mxCell id="ghNGC7fNvTlc1g47wujl-8" value="&lt;span style=&quot;font-size: 8px;&quot;&gt;Request()&lt;/span&gt;" style="text;html=1;align=center;verticalAlign=middle;whiteSpace=wrap;rounded=0;rotation=10;" vertex="1" parent="1">
          <mxGeometry x="170" y="160" width="60" height="30" as="geometry" />
        </mxCell>
        <mxCell id="ghNGC7fNvTlc1g47wujl-9" value="" style="endArrow=none;html=1;rounded=0;entryX=0.512;entryY=0.943;entryDx=0;entryDy=0;entryPerimeter=0;" edge="1" parent="1" target="ghNGC7fNvTlc1g47wujl-10">
          <mxGeometry width="50" height="50" relative="1" as="geometry">
            <mxPoint x="426" y="274" as="sourcePoint" />
            <mxPoint x="425" y="151" as="targetPoint" />
          </mxGeometry>
        </mxCell>
        <mxCell id="ghNGC7fNvTlc1g47wujl-10" value="Gorutina" style="text;html=1;align=center;verticalAlign=middle;resizable=0;points=[];autosize=1;strokeColor=none;fillColor=none;" vertex="1" parent="1">
          <mxGeometry x="390" y="135" width="70" height="30" as="geometry" />
        </mxCell>
        <mxCell id="ghNGC7fNvTlc1g47wujl-11" value="" style="endArrow=none;html=1;rounded=0;entryX=0.504;entryY=1.08;entryDx=0;entryDy=0;entryPerimeter=0;" edge="1" parent="1" target="ghNGC7fNvTlc1g47wujl-12">
          <mxGeometry width="50" height="50" relative="1" as="geometry">
            <mxPoint x="520" y="310" as="sourcePoint" />
            <mxPoint x="520" y="151" as="targetPoint" />
          </mxGeometry>
        </mxCell>
        <mxCell id="ghNGC7fNvTlc1g47wujl-12" value="Gorutina2" style="text;html=1;align=center;verticalAlign=middle;resizable=0;points=[];autosize=1;strokeColor=none;fillColor=none;" vertex="1" parent="1">
          <mxGeometry x="480" y="180" width="80" height="30" as="geometry" />
        </mxCell>
        <mxCell id="ghNGC7fNvTlc1g47wujl-15" value="" style="endArrow=classic;html=1;rounded=0;" edge="1" parent="1">
          <mxGeometry width="50" height="50" relative="1" as="geometry">
            <mxPoint x="426" y="256" as="sourcePoint" />
            <mxPoint x="115" y="298" as="targetPoint" />
          </mxGeometry>
        </mxCell>
        <mxCell id="ghNGC7fNvTlc1g47wujl-16" value="" style="endArrow=classic;html=1;rounded=0;" edge="1" parent="1">
          <mxGeometry width="50" height="50" relative="1" as="geometry">
            <mxPoint x="520" y="273" as="sourcePoint" />
            <mxPoint x="120" y="326" as="targetPoint" />
          </mxGeometry>
        </mxCell>
        <mxCell id="ghNGC7fNvTlc1g47wujl-17" value="&lt;span style=&quot;font-size: 8px;&quot;&gt;findPrimes(interval)&lt;/span&gt;" style="text;html=1;align=center;verticalAlign=middle;whiteSpace=wrap;rounded=0;rotation=-7.8;" vertex="1" parent="1">
          <mxGeometry x="330" y="242" width="60" height="30" as="geometry" />
        </mxCell>
        <mxCell id="ghNGC7fNvTlc1g47wujl-18" value="&lt;span style=&quot;font-size: 8px;&quot;&gt;findPrimes(interval)&lt;/span&gt;" style="text;html=1;align=center;verticalAlign=middle;whiteSpace=wrap;rounded=0;rotation=-7.8;" vertex="1" parent="1">
          <mxGeometry x="444" y="254" width="60" height="30" as="geometry" />
        </mxCell>
        <mxCell id="ghNGC7fNvTlc1g47wujl-19" value="" style="endArrow=classic;html=1;rounded=0;" edge="1" parent="1">
          <mxGeometry width="50" height="50" relative="1" as="geometry">
            <mxPoint x="289" y="176" as="sourcePoint" />
            <mxPoint x="427" y="199" as="targetPoint" />
          </mxGeometry>
        </mxCell>
        <mxCell id="ghNGC7fNvTlc1g47wujl-20" value="&lt;font style=&quot;font-size: 8px;&quot;&gt;Request()&lt;/font&gt;" style="text;html=1;align=center;verticalAlign=middle;whiteSpace=wrap;rounded=0;rotation=10;" vertex="1" parent="1">
          <mxGeometry x="334" y="165" width="60" height="30" as="geometry" />
        </mxCell>
        <mxCell id="ghNGC7fNvTlc1g47wujl-21" value="" style="endArrow=classic;html=1;rounded=0;" edge="1" parent="1">
          <mxGeometry width="50" height="50" relative="1" as="geometry">
            <mxPoint x="293" y="213" as="sourcePoint" />
            <mxPoint x="517" y="251" as="targetPoint" />
          </mxGeometry>
        </mxCell>
        <mxCell id="ghNGC7fNvTlc1g47wujl-22" value="&lt;font style=&quot;font-size: 8px;&quot;&gt;Request()&lt;/font&gt;" style="text;html=1;align=center;verticalAlign=middle;whiteSpace=wrap;rounded=0;rotation=10;" vertex="1" parent="1">
          <mxGeometry x="338" y="202" width="60" height="30" as="geometry" />
        </mxCell>
        <mxCell id="ghNGC7fNvTlc1g47wujl-27" value="x" style="text;html=1;align=center;verticalAlign=middle;whiteSpace=wrap;rounded=0;" vertex="1" parent="1">
          <mxGeometry x="396" y="258" width="60" height="30" as="geometry" />
        </mxCell>
        <mxCell id="ghNGC7fNvTlc1g47wujl-28" value="x" style="text;html=1;align=center;verticalAlign=middle;whiteSpace=wrap;rounded=0;" vertex="1" parent="1">
          <mxGeometry x="490" y="294" width="60" height="30" as="geometry" />
        </mxCell>
      </root>
    </mxGraphModel>
  </diagram>
</mxfile>
